<svg width="31" height="30" viewBox="0 0 31 30" fill="none" xmlns="http://www.w3.org/2000/svg">
<g clip-path="url(#clip0_116_117)">
<path d="M15.5976 26.6901C15.5976 26.5617 15.6357 26.4361 15.707 26.3292C15.7784 26.2224 15.8799 26.1391 15.9986 26.09C16.1173 26.0408 16.2479 26.0279 16.3739 26.053C16.4999 26.078 16.6157 26.1399 16.7065 26.2308C16.7974 26.3216 16.8593 26.4374 16.8843 26.5634C16.9094 26.6894 16.8965 26.82 16.8474 26.9387C16.7982 27.0574 16.7149 27.1589 16.6081 27.2303C16.5013 27.3017 16.3757 27.3398 16.2472 27.3398C16.0749 27.3398 15.9097 27.2713 15.7878 27.1495C15.666 27.0277 15.5976 26.8624 15.5976 26.6901ZM16.2472 27.2326C16.3542 27.2352 16.4596 27.2058 16.5499 27.1483C16.6402 27.0908 16.7113 27.0077 16.7542 26.9096C16.7971 26.8115 16.8098 26.7029 16.7908 26.5976C16.7717 26.4922 16.7217 26.3949 16.6472 26.3181C16.5727 26.2413 16.4769 26.1884 16.3722 26.1661C16.2675 26.1439 16.1585 26.1533 16.0592 26.1932C15.9599 26.2331 15.8746 26.3017 15.8144 26.3902C15.7542 26.4787 15.7217 26.5831 15.721 26.6901C15.7183 26.7613 15.7302 26.8322 15.7559 26.8985C15.7816 26.9649 15.8206 27.0254 15.8705 27.0761C15.9203 27.1269 15.98 27.167 16.0459 27.1939C16.1118 27.2208 16.1825 27.234 16.2537 27.2326H16.2472ZM16.1108 27.0669H15.9971V26.3198H16.2829C16.4583 26.3198 16.546 26.3848 16.546 26.531C16.5473 26.5575 16.5433 26.5841 16.5341 26.609C16.525 26.634 16.5109 26.6569 16.4927 26.6763C16.4745 26.6957 16.4526 26.7112 16.4283 26.7219C16.4039 26.7327 16.3777 26.7384 16.3511 26.7389L16.5655 27.0637H16.4388L16.2407 26.7389H16.1108V27.0669ZM16.2472 26.6479C16.3414 26.6479 16.4258 26.6479 16.4258 26.5245C16.4258 26.4011 16.3446 26.4173 16.2634 26.4173H16.1108V26.6479H16.2472Z" fill="#003DA6"/>
<path d="M4.90793 15.3281H14.922L9.86462 20.3822H4.90793V15.3281Z" fill="#007FA9"/>
<path d="M14.9189 30V15.3281L9.86472 20.3855V30H14.9189Z" fill="#003DA6"/>
<path d="M30.2436 15.3281H15.575L20.6291 20.3822H30.2436V15.3281Z" fill="#003DA6"/>
<path d="M15.575 25.3422V15.3281L20.6291 20.3855V25.3422H15.575Z" fill="#FFB71B"/>
<path d="M0.25 14.6719H14.9219L9.86455 9.61775H0.25V14.6719Z" fill="#003DA6"/>
<path d="M14.9189 4.65782V14.6719L9.86472 9.61451V4.65782H14.9189Z" fill="#FFB71B"/>
<path d="M25.589 14.6719H15.575L20.6323 9.61775H25.589V14.6719Z" fill="#007FA9"/>
<path d="M15.575 0V14.6719L20.6291 9.61455V0H15.575Z" fill="#003DA6"/>
</g>
<defs>
<clipPath id="clip0_116_117">
<rect width="29.9967" height="30" fill="white" transform="translate(0.25)"/>
</clipPath>
</defs>
</svg>
