<svg width="172" height="30" viewBox="0 0 172 30" fill="none" xmlns="http://www.w3.org/2000/svg">
<path d="M15.9551 26.6021C16.0674 26.6021 16.1423 26.6021 16.1423 26.4872C16.1423 26.3724 16.0674 26.3724 15.9551 26.3724H15.8427V26.6021H15.9551ZM15.8427 27.0231H15.7303V26.2575H16.03C16.2172 26.2575 16.3296 26.2958 16.3296 26.4872C16.3296 26.6021 16.2547 26.7169 16.1423 26.7169L16.367 27.0231H16.2547L16.0674 26.7169H15.8427V27.0231ZM15.9551 27.1762C16.2547 27.1762 16.4794 26.9466 16.4794 26.6403C16.4794 26.3341 16.2547 26.1044 15.9551 26.1044C15.6554 26.1044 15.4307 26.3341 15.4307 26.6403C15.4307 26.9848 15.6554 27.1762 15.9551 27.1762ZM15.3184 26.6403C15.3184 26.2575 15.618 25.9896 15.9925 25.9896C16.3296 25.9896 16.6667 26.2575 16.6667 26.6403C16.6667 27.0231 16.367 27.2911 15.9925 27.2911C15.618 27.2911 15.3184 27.0231 15.3184 26.6403Z" fill="white"/>
<path d="M20.3737 9.30208V0H15.3176V14.3551L20.3737 9.30208Z" fill="white"/>
<path d="M15.6174 14.6588H25.3552V9.60583H20.6361L15.6174 14.6588Z" fill="white"/>
<path d="M20.6366 20.3631H29.9999V15.3102H15.6179L20.6366 20.3631Z" fill="white"/>
<path d="M15.3184 15.6436V25.3668H20.3745V20.6966L15.3184 15.6436Z" fill="white"/>
<path d="M14.6435 14.3523V4.6674H9.62482V9.29931L14.6435 14.3523Z" fill="white"/>
<path d="M9.32584 9.60429H0V14.6573H14.382L9.32584 9.60429Z" fill="white"/>
<path d="M14.3814 15.3102H4.64355V20.3631H9.3252L14.3814 15.3102Z" fill="white"/>
<path d="M9.62482 20.6974V29.9994H14.6435V15.6444L9.62482 20.6974Z" fill="white"/>
<path d="M35.0363 4.19321C35.0363 2.74778 34.9583 2.37749 34.0813 2.29954L33.4544 2.24107C33.4225 2.20885 33.3977 2.17031 33.3816 2.12792C33.3654 2.08553 33.3584 2.04023 33.3608 1.99495C33.3633 1.94966 33.3752 1.90539 33.3958 1.86498C33.4164 1.82458 33.4452 1.78893 33.4804 1.76034C34.536 1.6629 35.8645 1.60443 37.6803 1.60443C38.9113 1.60443 40.0839 1.70188 40.9641 2.15012C41.4259 2.36415 41.8136 2.71067 42.0779 3.14561C42.3423 3.58056 42.4713 4.08428 42.4486 4.59274C42.4486 5.99919 41.6268 6.72028 40.4542 7.26922C40.4542 7.46411 40.6101 7.52258 40.8245 7.56156C41.5728 7.7094 42.2452 8.11588 42.7239 8.70977C43.2026 9.30366 43.457 10.0471 43.4425 10.8097C43.4425 13.0834 41.7632 14.6003 38.2454 14.6003C37.677 14.6003 36.7221 14.5418 35.9003 14.5418C35.0785 14.5418 34.3769 14.5808 33.6525 14.6003C33.5895 14.5361 33.5511 14.4518 33.544 14.3622C33.5368 14.2725 33.5615 14.1832 33.6136 14.1098L33.9676 14.0514C35.0005 13.876 35.0395 13.6616 35.0395 11.612L35.0363 4.19321ZM36.6408 6.79174C36.6408 7.34068 36.6571 7.37966 37.6543 7.34068C39.6486 7.26272 40.7205 6.67481 40.7205 4.8396C40.7205 2.92643 39.2946 2.20209 37.7972 2.20209C37.4936 2.18386 37.1894 2.22354 36.9007 2.31903C36.7058 2.37749 36.6279 2.47494 36.6279 2.82574L36.6408 6.79174ZM36.6408 11.3392C36.6408 12.044 36.6798 13.0412 37.0501 13.47C37.4204 13.8987 38.0051 14.0156 38.593 14.0156C40.3308 14.0156 41.6592 13.2361 41.6592 11.2807C41.6592 9.73782 40.8797 7.94159 37.7615 7.94159C36.7091 7.94159 36.6311 8.05852 36.6311 8.4483L36.6408 11.3392Z" fill="white"/>
<path d="M48.6524 10.5044C48.9447 10.407 48.9772 10.2316 48.9772 9.93599L48.9967 9.0395C49.0162 8.31516 48.7823 7.34071 47.5708 7.34071C47.0251 7.34071 46.3625 7.61355 46.3202 8.21771C46.3007 8.54253 46.2845 8.76665 46.1253 8.88359C45.7977 9.10993 45.4124 9.23836 45.0145 9.25388C44.9774 9.25854 44.9397 9.25473 44.9043 9.24271C44.8689 9.2307 44.8367 9.21081 44.8101 9.18453C44.7835 9.15826 44.7633 9.12629 44.7508 9.09104C44.7384 9.05578 44.7342 9.01817 44.7384 8.98103C44.7384 7.96436 46.9471 6.57739 48.3731 6.57739C49.799 6.57739 50.4616 7.39918 50.4032 8.8511L50.2862 12.2487C50.2473 13.1484 50.4227 13.9475 51.186 13.9475C51.3551 13.9458 51.5217 13.9058 51.6732 13.8305C51.7706 13.7721 51.8681 13.6941 51.9266 13.6941C51.985 13.6941 52.063 13.811 52.063 13.9475C51.8782 14.2077 51.635 14.421 51.353 14.5705C51.071 14.7199 50.758 14.8013 50.4389 14.8082C50.1944 14.8137 49.9521 14.7615 49.7314 14.656C49.5108 14.5505 49.3181 14.3946 49.1689 14.2008C49.0909 14.0839 48.974 13.928 48.8441 13.928C48.5728 14.021 48.3167 14.1534 48.084 14.321C47.6651 14.602 47.1805 14.7699 46.6775 14.8082C46.1815 14.8324 45.6942 14.6715 45.3101 14.3567C45.1181 14.1845 44.9648 13.9736 44.8601 13.738C44.7554 13.5023 44.7018 13.2471 44.7026 12.9893C44.7026 12.2292 45.0762 11.7809 46.3267 11.3327L48.6524 10.5044ZM47.4473 13.941C47.8843 13.9008 48.2994 13.7311 48.6394 13.4537C48.8733 13.2199 48.8733 12.947 48.8928 12.5345L48.9318 11.3814C48.9318 11.167 48.8538 11.1281 48.7369 11.1281C48.4641 11.1629 48.196 11.2283 47.9378 11.323C46.7847 11.716 46.2163 12.0083 46.2163 12.7684C46.217 12.9271 46.2498 13.0841 46.3127 13.2299C46.3755 13.3757 46.4672 13.5073 46.5821 13.6168C46.6971 13.7263 46.833 13.8115 46.9817 13.8672C47.1303 13.9229 47.2887 13.948 47.4473 13.941Z" fill="white"/>
<path d="M52.0698 18.1929C52.0615 18.088 52.0761 17.9825 52.1125 17.8838C52.1489 17.785 52.2062 17.6953 52.2807 17.6209C52.3551 17.5465 52.4448 17.4891 52.5435 17.4527C52.6423 17.4163 52.7477 17.4018 52.8526 17.4101H53.2229C53.353 17.417 53.4825 17.3879 53.5971 17.3261C53.7117 17.2642 53.807 17.1719 53.8726 17.0593C54.2581 16.5005 54.5795 15.9002 54.8308 15.2696C54.9363 15.0012 55.002 14.7189 55.0257 14.4315C55.0257 14.0385 54.9477 13.8046 54.7008 13.0835L53.1645 8.90641C52.8397 7.98718 52.6967 7.51944 52.0146 7.38302L51.5241 7.28558C51.4072 7.18813 51.4267 6.85357 51.5826 6.7951C52.2095 6.83408 52.7942 6.85357 53.4373 6.85357C53.9668 6.85357 54.5124 6.83408 55.1393 6.7951C55.2953 6.85357 55.3147 7.18813 55.1783 7.28558L54.6878 7.38302C54.415 7.44149 54.2591 7.49995 54.2591 7.63638C54.4072 8.26017 54.5971 8.87329 54.8275 9.47159L55.4512 11.2678C55.6072 11.7427 55.7961 12.2061 56.0163 12.6548C56.2993 12.1949 56.5417 11.7113 56.7407 11.2094L57.3903 9.66648C57.6927 9.04524 57.9226 8.39132 58.0757 7.71758C58.0757 7.58116 57.9587 7.44474 57.6047 7.39277L57.0005 7.29532C56.8641 7.19788 56.8836 6.86332 57.0395 6.80485C57.6632 6.84383 58.2511 6.86332 58.7578 6.86332C59.2645 6.86332 59.6965 6.84383 60.2422 6.80485C60.2799 6.83244 60.3111 6.86784 60.3339 6.90862C60.3567 6.9494 60.3703 6.9946 60.374 7.04116C60.3777 7.08771 60.3714 7.13451 60.3553 7.17837C60.3393 7.22223 60.314 7.26212 60.2812 7.29532L59.9564 7.35379C59.3067 7.47072 58.9592 8.0359 58.2965 9.42286L57.2019 11.6706C56.5523 12.9699 55.1328 15.9971 54.1746 18.1279C53.8498 18.8685 53.3723 19.0439 52.9241 19.0439C52.8103 19.0551 52.6953 19.0412 52.5874 19.0034C52.4794 18.9656 52.381 18.9046 52.2991 18.8248C52.2171 18.745 52.1536 18.6483 52.1128 18.5414C52.0721 18.4345 52.0552 18.32 52.0633 18.2059" fill="white"/>
<path d="M62.2688 12.3592C62.2688 13.7657 62.3078 13.9606 63.0094 14.058L63.4804 14.1165C63.5105 14.151 63.5334 14.1913 63.5477 14.2348C63.5621 14.2783 63.5676 14.3242 63.564 14.3699C63.5604 14.4156 63.5476 14.4601 63.5266 14.5008C63.5055 14.5415 63.4766 14.5776 63.4414 14.607C62.7918 14.568 62.2298 14.5485 61.5445 14.5485C60.8591 14.5485 60.2452 14.568 59.6703 14.607C59.6351 14.5776 59.6062 14.5415 59.5851 14.5008C59.5641 14.4601 59.5513 14.4156 59.5477 14.3699C59.5441 14.3242 59.5496 14.2783 59.564 14.2348C59.5783 14.1913 59.6012 14.151 59.6313 14.1165L60.0796 14.058C60.8039 13.9606 60.8234 13.7657 60.8234 12.3592V3.53074C60.8234 2.37764 60.8039 2.26071 60.216 1.90666L60.0211 1.78972C59.9738 1.73581 59.9477 1.66655 59.9477 1.59484C59.9477 1.52312 59.9738 1.45386 60.0211 1.39994C60.7455 1.18232 61.4515 0.907527 62.1324 0.578161C62.1726 0.577426 62.2121 0.588 62.2466 0.608676C62.2811 0.629351 62.309 0.659296 62.3273 0.695095C62.3078 1.27976 62.2688 2.25746 62.2688 3.11822V12.3592Z" fill="white"/>
<path d="M72.2507 10.6214C72.2507 13.064 70.5714 14.8213 68.1288 14.8213C65.8811 14.8213 64.1238 13.2394 64.1238 10.7968C64.1076 10.2431 64.2036 9.69179 64.4061 9.17619C64.6087 8.66058 64.9136 8.19134 65.3024 7.79676C65.6912 7.40217 66.1559 7.09042 66.6685 6.88031C67.181 6.67019 67.7308 6.56606 68.2847 6.57419C68.8148 6.56454 69.3414 6.66314 69.832 6.86396C70.3227 7.06478 70.7673 7.3636 71.1386 7.74214C71.5098 8.12068 71.7999 8.57097 71.9911 9.06549C72.1824 9.56 72.2707 10.0883 72.2507 10.6182V10.6214ZM68.0509 7.16211C66.7516 7.16211 65.8031 8.39316 65.8031 10.5434C65.8031 12.3202 66.6054 14.2334 68.3237 14.2334C70.042 14.2334 70.5714 12.4371 70.5714 10.9332C70.5714 9.27341 69.9056 7.16211 68.0509 7.16211Z" fill="white"/>
<path d="M74.3583 8.94201C74.3583 8.1787 74.3583 8.08125 73.8321 7.73045L73.6567 7.61352C73.6169 7.56264 73.5968 7.49899 73.6004 7.43445C73.604 7.3699 73.6309 7.30887 73.6762 7.26272C74.3555 6.98472 75.0144 6.65909 75.6478 6.28827C75.7453 6.30776 75.8038 6.34674 75.8038 6.42469V7.57454C75.8038 7.67198 75.8232 7.73045 75.8622 7.74994C76.5476 7.18476 77.2882 6.57736 78.0125 6.57736C78.1222 6.56803 78.2325 6.58118 78.3369 6.616C78.4413 6.65082 78.5375 6.70657 78.6196 6.77985C78.7017 6.85313 78.768 6.94239 78.8144 7.04217C78.8608 7.14196 78.8864 7.25016 78.8895 7.36016C78.8938 7.47417 78.8756 7.58791 78.8357 7.69482C78.7958 7.80173 78.7352 7.89968 78.6573 7.98303C78.5794 8.06638 78.4857 8.13347 78.3818 8.18044C78.2778 8.2274 78.1655 8.2533 78.0515 8.25665C77.8979 8.25632 77.7482 8.20868 77.6227 8.12023C77.3731 7.93126 77.0742 7.81846 76.762 7.79541C76.6222 7.79878 76.4854 7.836 76.3632 7.90389C76.241 7.97178 76.137 8.06831 76.0604 8.18519C75.8622 8.45804 75.8038 9.02647 75.8038 9.68909V12.3461C75.8038 13.7525 75.8427 13.9864 76.5866 14.0449L77.2882 14.1033C77.3187 14.1377 77.3419 14.1779 77.3566 14.2214C77.3712 14.265 77.3768 14.3111 77.3732 14.3569C77.3695 14.4027 77.3567 14.4473 77.3354 14.488C77.3141 14.5287 77.2847 14.5647 77.2492 14.5938C76.3332 14.5548 75.7648 14.5353 75.0827 14.5353C74.4005 14.5353 73.7834 14.5548 73.2864 14.5938C73.2488 14.5662 73.2175 14.5308 73.1947 14.49C73.172 14.4493 73.1583 14.4041 73.1546 14.3575C73.1509 14.311 73.1573 14.2642 73.1733 14.2203C73.1893 14.1764 73.2146 14.1365 73.2475 14.1033L73.6178 14.0449C74.3388 13.9279 74.3583 13.7525 74.3583 12.3461V8.94201Z" fill="white"/>
<path d="M82.9502 14.8603C81.8879 14.8883 80.8366 14.6386 79.9002 14.136C79.6664 13.7072 79.413 12.3203 79.374 11.4043C79.4715 11.2646 79.7638 11.2256 79.8418 11.3426C80.1373 12.3398 80.9364 14.2659 83.2036 14.2659C84.8439 14.2659 85.643 13.1908 85.643 12.0182C85.643 11.1574 85.4676 10.1992 84.0416 9.28324L82.2032 8.06193C81.2287 7.4123 80.0919 6.30468 80.0919 4.70334C80.0919 2.84539 81.5373 1.34149 84.0773 1.34149C84.692 1.35141 85.303 1.4376 85.8963 1.5981C86.1175 1.66709 86.3469 1.70641 86.5784 1.71503C86.807 2.48815 86.9251 3.28973 86.9292 4.09593C86.8513 4.21611 86.5395 4.27133 86.442 4.1544C86.1887 3.21893 85.6592 1.9489 83.785 1.9489C81.9108 1.9489 81.4626 3.21893 81.4626 4.11542C81.4626 5.24903 82.3981 6.06432 83.1224 6.51906L84.6848 7.49351C85.9126 8.25358 87.1274 9.38718 87.1274 11.2419C87.1274 13.3922 85.5033 14.8571 82.9665 14.8571" fill="white"/>
<path d="M94.8058 6.9087C95.0011 7.12183 95.106 7.40253 95.0982 7.69151C95.0982 8.04231 94.9033 8.4126 94.6694 8.4126C94.6162 8.41394 94.5635 8.4022 94.516 8.37841C94.4684 8.35463 94.4274 8.31952 94.3966 8.27618C94.1639 7.97527 93.8697 7.72747 93.5336 7.54935C93.1975 7.37122 92.8273 7.26687 92.4477 7.24326C91.0802 7.24326 89.7549 8.31516 89.7549 10.3875C89.7549 11.9109 90.8073 13.7266 92.8991 13.7266C93.3329 13.7476 93.7642 13.6495 94.1461 13.4428C94.528 13.2361 94.8461 12.9287 95.0657 12.554C95.1068 12.5476 95.1488 12.5497 95.1891 12.5602C95.2294 12.5706 95.2671 12.5892 95.3 12.6147C95.3328 12.6403 95.3601 12.6723 95.3801 12.7087C95.4002 12.7452 95.4125 12.7854 95.4165 12.8269C95.1204 13.4335 94.6576 13.9432 94.0824 14.2964C93.5072 14.6496 92.8432 14.8316 92.1683 14.8212C91.1801 14.8516 90.2193 14.4936 89.4918 13.824C89.1149 13.4456 88.8197 12.9937 88.6247 12.4964C88.4297 11.9991 88.339 11.467 88.3582 10.9332C88.3582 8.82512 89.8426 6.57739 93.0875 6.57739C93.6818 6.57879 94.2707 6.68887 94.8253 6.90221" fill="white"/>
<path d="M103.771 10.6213C103.771 13.064 102.092 14.8212 99.649 14.8212C97.4045 14.8212 95.6473 13.2394 95.6473 10.7967C95.631 10.243 95.727 9.69174 95.9296 9.17613C96.1321 8.66053 96.437 8.19128 96.8258 7.7967C97.2146 7.40212 97.6793 7.09037 98.1919 6.88025C98.7045 6.67013 99.2543 6.566 99.8082 6.57414C100.338 6.56493 100.864 6.66386 101.354 6.86488C101.845 7.0659 102.289 7.36478 102.66 7.74328C103.031 8.12177 103.321 8.57191 103.512 9.0662C103.703 9.56049 103.791 10.0885 103.771 10.6181V10.6213ZM99.5711 7.16205C98.2718 7.16205 97.3266 8.39311 97.3266 10.5434C97.3266 12.3201 98.1289 14.2333 99.8472 14.2333C101.565 14.2333 102.092 12.4371 102.092 10.9332C102.092 9.27336 101.442 7.16205 99.5711 7.16205Z" fill="white"/>
<path d="M107.483 7.6721C107.158 7.6721 107.132 7.73057 107.132 8.13984V11.794C107.132 12.9276 107.269 13.9605 108.558 13.9605C108.738 13.9601 108.916 13.9271 109.084 13.8631C109.26 13.8046 109.516 13.5902 109.575 13.5902C109.731 13.5902 109.809 13.8046 109.77 13.9151C109.512 14.2028 109.195 14.432 108.841 14.5872C108.487 14.7424 108.104 14.82 107.717 14.8148C106.038 14.8148 105.687 13.8761 105.687 12.7067V8.23728C105.687 7.71108 105.667 7.6721 105.278 7.6721H104.729C104.672 7.6211 104.635 7.55186 104.625 7.47645C104.614 7.40105 104.63 7.32429 104.67 7.25959C105.118 7.13612 105.54 6.93133 105.914 6.65543C106.244 6.31392 106.521 5.9253 106.736 5.50233C106.833 5.46335 107.061 5.46335 107.145 5.60303V6.48003C107.145 6.83083 107.165 6.85032 107.496 6.85032H109.666C109.768 6.96197 109.825 7.10659 109.829 7.25757C109.833 7.40855 109.782 7.55575 109.685 7.6721H107.483Z" fill="white"/>
<path d="M113.385 7.6721C113.06 7.6721 113.034 7.73057 113.034 8.13984V11.794C113.034 12.9276 113.171 13.9605 114.46 13.9605C114.64 13.9601 114.818 13.9271 114.986 13.8631C115.162 13.8046 115.418 13.5902 115.477 13.5902C115.633 13.5902 115.711 13.8046 115.672 13.9151C115.413 14.2028 115.097 14.432 114.743 14.5872C114.389 14.7424 114.005 14.82 113.619 14.8148C111.94 14.8148 111.589 13.8761 111.589 12.7067V8.23728C111.589 7.71108 111.569 7.6721 111.179 7.6721H110.63C110.574 7.6211 110.537 7.55186 110.526 7.47645C110.516 7.40105 110.532 7.32429 110.572 7.25959C111.022 7.13686 111.446 6.93205 111.823 6.65543C112.152 6.31392 112.429 5.9253 112.644 5.50233C112.742 5.46335 112.969 5.46335 113.054 5.60303V6.48003C113.054 6.83083 113.073 6.85032 113.404 6.85032H115.574C115.676 6.96197 115.734 7.10659 115.737 7.25757C115.741 7.40855 115.69 7.55575 115.594 7.6721H113.385Z" fill="white"/>
<path d="M118.907 6.41164C118.907 6.09128 118.969 5.77396 119.093 5.47822C119.216 5.18249 119.397 4.91427 119.625 4.68926C119.853 4.46425 120.123 4.28696 120.421 4.16776C120.718 4.04855 121.036 3.98982 121.357 3.99501C122.269 3.99501 123.172 4.54719 123.172 5.44368C123.16 5.79664 123.017 6.13247 122.772 6.38666C122.527 6.64086 122.196 6.79551 121.844 6.82091C121.772 6.82091 121.467 6.82091 121.685 6.49609C121.786 6.37663 121.854 6.23307 121.883 6.07939C121.912 5.92571 121.901 5.76714 121.85 5.61908C121.771 5.40057 121.626 5.21146 121.437 5.07687C121.247 4.94227 121.021 4.86856 120.788 4.86551C120.635 4.84405 120.478 4.85502 120.329 4.89771C120.181 4.9404 120.042 5.01386 119.923 5.11335C119.805 5.21284 119.708 5.33615 119.64 5.47529C119.572 5.61444 119.534 5.76633 119.528 5.92116C119.528 6.5708 119.911 6.98331 121.246 7.71415C122.964 8.64637 124.459 9.45191 125.738 12.0667C126.176 11.5524 126.408 10.8938 126.388 10.2185C126.4 9.74823 126.247 9.28856 125.956 8.91922C125.869 8.80857 125.761 8.71689 125.637 8.64984C125.514 8.58279 125.378 8.54181 125.238 8.52944C125.064 8.50074 124.885 8.51279 124.716 8.56463C124.547 8.61647 124.392 8.7067 124.264 8.82827C124.232 8.86302 124.19 8.88725 124.145 8.8977C124.099 8.90815 124.051 8.90432 124.007 8.88673C123.877 8.84126 123.854 8.64637 123.884 8.43524C123.971 7.78561 124.647 7.28214 125.618 7.28214C125.946 7.29516 126.272 7.33865 126.593 7.41207C126.839 7.46577 127.088 7.50159 127.34 7.51926C127.427 7.53389 127.518 7.52299 127.599 7.48787C127.681 7.45274 127.751 7.39486 127.801 7.32112C127.801 7.32112 127.85 7.23992 127.921 7.23992C127.967 7.2411 128.012 7.2551 128.05 7.28035C128.089 7.30561 128.119 7.3411 128.139 7.38284C128.139 8.11367 127.72 8.53593 126.787 8.78929C126.994 9.17749 127.095 9.61328 127.08 10.0528C127.083 11.0003 126.715 11.9112 126.053 12.5896C126.638 13.668 127.206 14.0708 128.155 14.0708C128.329 14.0767 128.502 14.0525 128.668 13.9993C128.773 13.9613 128.882 13.9362 128.993 13.9246C129.084 13.9246 129.123 13.9636 129.123 14.0546C129.123 14.4183 128.298 14.7042 127.239 14.7042C126.232 14.7042 125.722 14.4833 124.861 13.7297C123.562 14.4801 122.74 14.7367 121.613 14.7367C119.255 14.7367 117.426 13.2003 117.426 11.2254C117.426 9.15958 118.979 8.40601 119.674 8.11367C119.109 7.49002 118.907 7.01904 118.907 6.41813V6.41164ZM120.096 8.5002C119.31 8.66586 118.943 9.14984 118.943 10.0918C118.943 12.1024 120.629 13.8597 122.516 13.8597C123.212 13.8607 123.895 13.6708 124.491 13.3107C124.181 12.9619 123.899 12.5894 123.646 12.1966L123.224 11.5924C122.513 10.4997 121.599 9.55357 120.532 8.80553L120.096 8.5002Z" fill="white"/>
<path d="M126.378 2.0657C126.35 2.03162 126.329 1.99219 126.317 1.94982C126.304 1.90745 126.301 1.86303 126.306 1.81927C126.312 1.7755 126.326 1.73331 126.349 1.69526C126.371 1.65722 126.401 1.62411 126.436 1.59797C126.966 1.63694 127.843 1.65318 128.45 1.65318C128.996 1.65318 129.993 1.63694 130.675 1.59797C130.85 1.65319 130.831 1.92278 130.714 2.0657L130.266 2.10468C129.857 2.14366 129.616 2.26059 129.616 2.42949C129.616 2.66336 130.029 3.66055 130.633 5.04751C131.727 7.49013 132.881 9.91975 134.011 12.3331C134.482 11.3587 135.008 10.2641 135.518 9.16943C135.657 8.91556 135.766 8.6463 135.843 8.36713C135.818 8.19107 135.765 8.02006 135.687 7.86042C135.002 6.29805 134.281 4.73569 133.537 3.17332C133.244 2.56592 132.952 2.15665 132.286 2.09818L131.818 2.0592C131.786 2.02808 131.761 1.9901 131.745 1.94803C131.729 1.90596 131.723 1.86087 131.726 1.81605C131.73 1.77122 131.744 1.7278 131.767 1.68895C131.789 1.65009 131.82 1.61679 131.857 1.59147C132.423 1.63045 133.157 1.64669 133.946 1.64669C134.92 1.64669 135.648 1.63045 136.096 1.59147C136.233 1.64669 136.252 1.91629 136.135 2.0592L135.629 2.09818C134.865 2.15665 134.846 2.29307 135.216 3.17332C135.629 4.12828 136.174 5.35933 136.723 6.5709C137.093 5.81083 137.444 5.067 137.873 4.01135C138.578 2.35154 138.48 2.13716 137.854 2.09818L137.269 2.0592C137.132 1.86432 137.171 1.64669 137.308 1.59147C137.834 1.63045 138.419 1.64669 139.143 1.64669C139.793 1.64669 140.569 1.63045 141.017 1.59147C141.157 1.64669 141.173 1.91629 141.056 2.0592L140.491 2.09818C139.669 2.15665 139.318 3.0369 138.89 3.83595C138.48 4.56029 137.659 6.25907 137.366 6.94119C137.283 7.08797 137.224 7.24692 137.191 7.41217C137.21 7.57456 137.256 7.73262 137.327 7.87991C137.977 9.3838 138.675 10.8487 139.318 12.3331C139.926 10.9657 140.511 9.59818 141.076 8.21122C141.469 7.27575 142.502 4.67722 142.638 4.31343C142.882 3.73822 143.079 3.14399 143.226 2.53668C143.226 2.26384 142.992 2.10793 142.576 2.08844L142.011 2.04946C141.855 1.87406 141.875 1.65968 142.031 1.58173C142.774 1.6207 143.301 1.63694 143.908 1.63694C144.649 1.63694 145.207 1.6207 145.724 1.58173C145.88 1.63694 145.899 1.90654 145.763 2.04946L145.389 2.08844C144.415 2.18588 144.239 2.7738 143.067 5.48601L141.641 8.78939C140.78 10.7805 140.001 12.6872 139.198 14.7855C139.128 14.8277 139.046 14.848 138.964 14.844C138.87 14.8453 138.777 14.8253 138.692 14.7855C138.065 13.0477 136.931 10.6051 136.327 9.23764C135.625 10.6636 134.453 13.1647 133.884 14.7855C133.814 14.8277 133.732 14.848 133.65 14.844C133.55 14.8434 133.451 14.8235 133.358 14.7855C133.033 13.9637 132.263 12.2065 132.01 11.6413C130.76 8.92581 129.548 6.21035 128.281 3.49489C127.908 2.6926 127.674 2.16639 126.855 2.08844L126.378 2.0657Z" fill="white"/>
<path d="M145.234 3.53057C145.234 2.29303 145.146 2.13712 144.867 2.23131L144.432 1.78956C144.334 1.73109 143.698 1.65314 143.944 1.65314C145.507 1.65314 145.858 0.984018 146.543 0.577999C146.563 0.566389 146.586 0.560364 146.609 0.560551C146.632 0.560738 146.655 0.56713 146.675 0.579063C146.695 0.590995 146.711 0.608034 146.722 0.628409C146.733 0.648784 146.739 0.671754 146.738 0.694932C146.709 1.2796 146.679 2.2573 146.679 3.11806V7.22373C146.679 7.39913 146.699 7.54855 146.757 7.59402C147.502 6.97561 148.428 6.61846 149.395 6.57735C151.25 6.57735 151.912 7.73044 151.912 9.09792V12.3461C151.912 13.7525 151.951 13.9702 152.656 14.0449L153.182 14.1033C153.212 14.1379 153.235 14.1781 153.25 14.2216C153.264 14.2651 153.269 14.3111 153.266 14.3568C153.262 14.4024 153.249 14.4469 153.228 14.4876C153.207 14.5283 153.178 14.5644 153.143 14.5938C152.442 14.5548 151.873 14.5353 151.194 14.5353C150.515 14.5353 149.895 14.5548 149.375 14.5938C149.34 14.5645 149.311 14.5283 149.29 14.4875C149.269 14.4466 149.256 14.402 149.253 14.3562C149.25 14.3104 149.256 14.2644 149.271 14.2209C149.285 14.1775 149.309 14.1375 149.34 14.1033L149.729 14.0449C150.454 13.9279 150.47 13.7525 150.47 12.3461V9.55591C150.47 8.30537 149.866 7.46734 148.615 7.46734C148.061 7.45642 147.521 7.64293 147.092 7.99355C146.741 8.28588 146.683 8.38333 146.683 9.06869V12.3493C146.683 13.7558 146.722 13.9507 147.423 14.0481L147.816 14.1033C147.953 14.1813 147.917 14.5353 147.78 14.5938C147.193 14.5548 146.624 14.5353 145.942 14.5353C145.26 14.5353 144.643 14.5548 144.029 14.5938C143.994 14.5644 143.965 14.5283 143.944 14.4876C143.923 14.4469 143.91 14.4024 143.906 14.3568C143.903 14.3111 143.908 14.2651 143.923 14.2216C143.937 14.1781 143.96 14.1379 143.99 14.1033L144.477 14.0449C145.201 13.9669 145.221 13.7525 145.221 12.3461L145.234 3.53057Z" fill="white"/>
<path d="M155.001 8.94217C155.001 8.17885 155.001 8.0814 154.471 7.7306L154.312 7.60717C154.272 7.55629 154.252 7.49265 154.256 7.42811C154.26 7.36356 154.286 7.30252 154.332 7.25637C155.028 6.98593 155.701 6.66007 156.346 6.28192C156.387 6.27577 156.428 6.28407 156.464 6.3054C156.5 6.32674 156.527 6.35978 156.54 6.39886C156.501 7.08097 156.462 8.02294 156.462 8.82199V12.3592C156.462 13.7657 156.501 13.9606 157.203 14.058L157.612 14.1165C157.643 14.1508 157.666 14.191 157.681 14.2346C157.695 14.2781 157.701 14.3242 157.697 14.37C157.694 14.4158 157.681 14.4604 157.66 14.5012C157.638 14.5419 157.609 14.5779 157.573 14.607C156.989 14.568 156.424 14.5485 155.738 14.5485C155.053 14.5485 154.439 14.568 153.903 14.607C153.868 14.5776 153.839 14.5415 153.818 14.5008C153.797 14.4601 153.784 14.4156 153.78 14.3699C153.777 14.3242 153.782 14.2783 153.797 14.2348C153.811 14.1913 153.834 14.151 153.864 14.1165L154.273 14.058C154.994 13.9606 155.017 13.7657 155.017 12.3592L155.001 8.94217ZM156.625 3.99847C156.63 4.26811 156.528 4.52876 156.341 4.72307C156.154 4.91739 155.897 5.02946 155.628 5.03463C155.358 5.0398 155.097 4.93765 154.903 4.75064C154.709 4.56363 154.597 4.30709 154.592 4.03745C154.586 3.89735 154.61 3.75763 154.661 3.62707C154.712 3.49651 154.789 3.37794 154.889 3.27879C154.988 3.17965 155.106 3.10209 155.237 3.05098C155.367 2.99987 155.507 2.97631 155.647 2.9818C155.779 2.98167 155.909 3.00821 156.03 3.0598C156.151 3.11139 156.261 3.18696 156.352 3.28197C156.443 3.37698 156.514 3.48944 156.56 3.61258C156.606 3.73573 156.627 3.86699 156.622 3.99847" fill="white"/>
<path d="M161.133 7.6721C160.808 7.6721 160.782 7.73057 160.782 8.13984V11.794C160.782 12.9276 160.919 13.9605 162.208 13.9605C162.388 13.9601 162.566 13.9271 162.734 13.8631C162.91 13.8046 163.163 13.5903 163.225 13.5903C163.381 13.5903 163.459 13.8046 163.42 13.9151C163.161 14.2025 162.844 14.4315 162.49 14.5866C162.136 14.7418 161.753 14.8196 161.367 14.8148C159.688 14.8148 159.337 13.8761 159.337 12.7067V8.23728C159.337 7.71108 159.317 7.6721 158.924 7.6721H158.379C158.322 7.6211 158.285 7.55186 158.274 7.47645C158.264 7.40105 158.28 7.32429 158.32 7.25959C158.77 7.13617 159.194 6.93141 159.571 6.65543C159.899 6.31376 160.175 5.92514 160.389 5.50233C160.49 5.46335 160.714 5.46335 160.802 5.60303V6.48003C160.802 6.83083 160.821 6.85032 161.152 6.85032H163.319C163.422 6.96132 163.481 7.10615 163.484 7.25752C163.488 7.40889 163.436 7.55634 163.338 7.6721H161.133Z" fill="white"/>
<path d="M165.68 9.55595C165.174 9.55595 165.154 9.59493 165.154 10.0854C165.154 12.057 166.304 13.7363 168.402 13.7363C169.052 13.7363 169.595 13.5414 170.199 12.7814C170.237 12.7662 170.279 12.7605 170.32 12.7649C170.361 12.7693 170.401 12.7836 170.435 12.8065C170.47 12.8295 170.498 12.8605 170.518 12.8969C170.538 12.9332 170.549 12.9738 170.549 13.0152C169.9 14.3405 168.5 14.831 167.483 14.831C166.943 14.848 166.406 14.7396 165.914 14.5141C165.423 14.2887 164.99 13.9524 164.651 13.5317C164.106 12.7982 163.818 11.9053 163.832 10.9916C163.832 8.588 165.414 6.57739 167.759 6.57739C169.439 6.57739 170.53 7.73049 170.53 8.90307C170.542 9.07569 170.516 9.24887 170.452 9.40979C170.397 9.52672 170.127 9.54621 169.302 9.54621L165.68 9.55595ZM166.892 8.97128C168.337 8.97128 168.766 8.89333 168.922 8.7764C168.981 8.73742 169.039 8.65621 169.039 8.40286C169.039 7.85717 168.669 7.17181 167.535 7.17181C166.402 7.17181 165.388 8.22746 165.369 8.87384C165.369 8.91282 165.369 8.97128 165.505 8.97128H166.892Z" fill="white"/>
<path d="M35.678 21.113V23.0262H37.6951V21.113H38.7929V26.1022H37.6951V23.9487H35.678V26.1022H34.5801V21.113H35.678Z" fill="white"/>
<path d="M47.1566 21.113V22.0355H44.5224V23.1042H46.939V23.9552H44.5224V25.1797H47.2118V26.1022H43.4277V21.113H47.1566Z" fill="white"/>
<path d="M54.1112 21.113L55.9757 26.1022H54.8356L54.4718 24.9913H52.6073L52.198 26.1022H51.0969L52.9809 21.113H54.1112ZM54.1729 24.1728L53.5428 22.3408L52.8932 24.1728H54.1729Z" fill="white"/>
<path d="M61.1758 21.113V25.1797H63.6054V26.1022H60.0779V21.113H61.1758Z" fill="white"/>
<path d="M67.4966 22.0355V21.113H71.586V22.0355H70.0919V26.1022H68.994V22.0355H67.4966Z" fill="white"/>
<path d="M76.9265 21.113V23.0262H78.9436V21.113H80.0415V26.1022H78.9436V23.9487H76.9265V26.1022H75.8286V21.113H76.9265Z" fill="white"/>
</svg>
